# xmcd
#
# Track frame offsets: 
#        150
#        16681
#        47711
#        73493
#        96334
#        118405
#        135325
#        167011
#        186487
#        205502
#
# Disc length: 3017 seconds
#
# Revision: 0
# Processed by: cddbd v1.5.2PL0 Copyright (c) Steve Scherf et al.
# Submitted via: ExactAudioCopyFreeDBPlugin 1.0
#
DISCID=8e0bc70a
DTITLE=Matt Schofield - Anything But Time
DYEAR=2011
DGENRE=Blues
TTITLE0=Anything But Time
TTITLE1=See Me Through
TTITLE2=At Times We Do Forget
TTITLE3=Shipwrecked
TTITLE4=Dreaming Of You
TTITLE5=Wrapped Up In Love
TTITLE6=Where Do I Have To Stand
TTITLE7=One Look (And I'm Hooked)
TTITLE8=Don't Know What I'd Do
TTITLE9=Share Our Smile Again
EXTD=
EXTT0=
EXTT1=
EXTT2=
EXTT3=
EXTT4=
EXTT5=
EXTT6=
EXTT7=
EXTT8=
EXTT9=
PLAYORDER=
